<?xml version="1.0" encoding="UTF-8"?>
<svg viewBox="0 0 152.4655 37.866932" xmlns="http://www.w3.org/2000/svg">
 <g transform="translate(-255.2 -410.57)" stroke="#008484" stroke-linecap="round" stroke-linejoin="round">
  <path d="m271.45 410.63c0 10.357-16.019 17.3-16.188 25.781 0 4.653 3.6576 8.4242 8.1681 8.4242 3.3919 0 6.2997-2.1329 7.5339-5.1695-1.9944 8.7938-9.7438 8.7061-9.7438 8.7061h20.417s-7.7123-0.0486-9.7296-8.6951c1.2368 3.0307 4.1426 5.1584 7.5303 5.1584 4.5106 0 8.1663-3.7712 8.1663-8.4242 0.01-8.8183-16.154-15.425-16.154-25.781z" stroke-width=".05807"/>
  <path d="m375.26 419.93c0-5.1337 3.6572-9.2945 8.1674-9.2945 3.9514 0 7.247 3.1941 8.003 7.4381 0.756-4.2437 4.0516-7.4381 8.003-7.4381 4.5102 0 8.1656 4.1608 8.1656 9.2945 0.01 9.7294-16.153 17.018-16.153 28.444 0-11.427-16.017-19.087-16.186-28.444z" fill="#a31919" stroke-width=".06099"/>
  <path d="m351.32 410.63c-4.5104 0-8.1679 3.8757-8.1679 8.6553 0 3.5526 2.0215 6.6049 4.9111 7.9378 1.2068 1.2709 2.2688 3.0657 2.8709 5.5998-1.2517-3.0772-4.1401-5.2307-7.5033-5.2307-4.5104 0-8.1679 3.8757-8.1679 8.6553s3.6575 8.6534 8.1679 8.6534c3.3728 0 6.2682-2.1659 7.5141-5.2572-2.0691 8.816-9.6954 8.7273-9.6954 8.7273h20.416s-7.3995-0.0484-9.5989-8.396c1.3144 2.9133 4.1205 4.9259 7.3711 4.9259 4.5105 0 8.1662-3.8738 8.1662-8.6534s-3.6557-8.6553-8.1662-8.6553c-3.2373 0-6.0338 1.9959-7.355 4.8899 0.7033-2.6318 1.9236-4.4349 3.2639-5.668 7e-4 -6.1e-4 0-1e-3 0-2e-3 2.4705-1.4878 4.1376-4.3002 4.1376-7.527 0-4.7796-3.6557-8.6553-8.1662-8.6553z" stroke-width=".05885"/>
  <path d="m311.43 448.37s-4.6103-7.1709-7.3173-10.33-8.8518-8.5392-8.8518-8.5392 6.1448-5.3802 8.8518-8.5392 7.3173-10.33 7.3173-10.33 4.6103 7.1709 7.3173 10.33 8.8518 8.5392 8.8518 8.5392-6.1449 5.3802-8.8518 8.5392-7.3173 10.33-7.3173 10.33z" fill="#a31919" stroke-width=".06185"/>
 </g>
</svg>
