<?xml version="1.0" encoding="UTF-8"?>
<svg viewBox="330 408 40 50" xmlns="http://www.w3.org/2000/svg">
 <g stroke="#000000" stroke-linecap="round" stroke-linejoin="round">
  <path d="m351.32 410.63c-4.5104 0-8.1679 3.8757-8.1679 8.6553 0 3.5526 2.0215 6.6049 4.9111 7.9378 1.2068 1.2709 2.2688 3.0657 2.8709 5.5998-1.2517-3.0772-4.1401-5.2307-7.5033-5.2307-4.5104 0-8.1679 3.8757-8.1679 8.6553s3.6575 8.6534 8.1679 8.6534c3.3728 0 6.2682-2.1659 7.5141-5.2572-2.0691 8.816-9.6954 8.7273-9.6954 8.7273h20.416s-7.3995-0.0484-9.5989-8.396c1.3144 2.9133 4.1205 4.9259 7.3711 4.9259 4.5105 0 8.1662-3.8738 8.1662-8.6534s-3.6557-8.6553-8.1662-8.6553c-3.2373 0-6.0338 1.9959-7.355 4.8899 0.7033-2.6318 1.9236-4.4349 3.2639-5.668 7e-4 -6.1e-4 0-1e-3 0-2e-3 2.4705-1.4878 4.1376-4.3002 4.1376-7.527 0-4.7796-3.6557-8.6553-8.1662-8.6553z" stroke-width="2"/>
 </g>
</svg>